<?xml version="1.0" encoding="iso-8859-1"?>
<!-- Generator: Adobe Illustrator 19.0.0, SVG Export Plug-In . SVG Version: 6.00 Build 0)  -->
<svg version="1.1" id="Layer_1" xmlns="http://www.w3.org/2000/svg" xmlns:xlink="http://www.w3.org/1999/xlink" x="0px" y="0px"
	 viewBox="0 0 512 512" style="enable-background:new 0 0 512 512;" fill="#8590A5" xml:space="preserve">
<g>
	<g>
		<rect x="162.133" y="435.2" width="179.2" height="25.6"/>
	</g>
</g>
<g>
	<g>
		<rect x="162.133" y="384" width="179.2" height="25.6"/>
	</g>
</g>
<g>
	<g>
		<rect x="162.133" y="332.8" width="179.2" height="25.6"/>
	</g>
</g>
<g>
	<g>
		<path d="M460.8,128h-68.267V0h-281.6v128H51.2C22.972,128,0,150.972,0,179.2v179.2c0,28.228,22.972,51.2,51.2,51.2h59.733V512
			h281.6V409.6H460.8c28.237,0,51.2-22.972,51.2-51.2V179.2C512,150.972,489.037,128,460.8,128z M136.533,25.6h230.4V128h-230.4
			V25.6z M366.933,486.4h-230.4V281.6h230.4V486.4z M486.4,358.4c0,14.14-11.46,25.6-25.6,25.6h-68.267V281.6H422.4
			c7.074,0,12.8-5.726,12.8-12.8c0-7.074-5.726-12.8-12.8-12.8H89.6c-7.074,0-12.8,5.726-12.8,12.8c0,7.074,5.726,12.8,12.8,12.8
			h21.333V384H51.2c-14.14,0-25.6-11.46-25.6-25.6V179.2c0-14.14,11.46-25.6,25.6-25.6h409.6c14.14,0,25.6,11.46,25.6,25.6V358.4z"
			/>
	</g>
</g>
<g>
	<g>
		<path d="M422.4,179.2H320c-7.074,0-12.8,5.726-12.8,12.8s5.726,12.8,12.8,12.8h102.4c7.074,0,12.8-5.726,12.8-12.8
			S429.474,179.2,422.4,179.2z"/>
	</g>
</g>
<g>
</g>
<g>
</g>
<g>
</g>
<g>
</g>
<g>
</g>
<g>
</g>
<g>
</g>
<g>
</g>
<g>
</g>
<g>
</g>
<g>
</g>
<g>
</g>
<g>
</g>
<g>
</g>
<g>
</g>
</svg>
