<?xml version="1.0" encoding="iso-8859-1"?>
<!-- Generator: Adobe Illustrator 19.0.0, SVG Export Plug-In . SVG Version: 6.00 Build 0)  -->
<svg version="1.1" id="Layer_1" xmlns="http://www.w3.org/2000/svg" xmlns:xlink="http://www.w3.org/1999/xlink" x="0px" y="0px"
	 viewBox="0 0 512 512" style="enable-background:new 0 0 512 512;" fill="#8590A5" xml:space="preserve">
<g>
	<g>
		<g>
			<path d="M65.085,34.712h-8.678c-4.793,0-8.678,3.885-8.678,8.678s3.885,8.678,8.678,8.678h8.678c4.793,0,8.678-3.885,8.678-8.678
				S69.877,34.712,65.085,34.712z"/>
			<path d="M108.475,34.712h-8.678c-4.793,0-8.678,3.885-8.678,8.678s3.885,8.678,8.678,8.678h8.678
				c4.793,0,8.678-3.885,8.678-8.678S113.267,34.712,108.475,34.712z"/>
			<path d="M151.864,34.712h-8.678c-4.793,0-8.678,3.885-8.678,8.678s3.885,8.678,8.678,8.678h8.678
				c4.793,0,8.678-3.885,8.678-8.678S156.657,34.712,151.864,34.712z"/>
			<path d="M143.186,147.525h225.627c4.793,0,8.678-3.885,8.678-8.678c0-4.793-3.885-8.678-8.678-8.678H143.186
				c-4.793,0-8.678,3.885-8.678,8.678C134.508,143.64,138.394,147.525,143.186,147.525z"/>
			<path d="M125.831,190.915h260.339c4.793,0,8.678-3.885,8.678-8.678c0-4.793-3.885-8.678-8.678-8.678H125.831
				c-4.793,0-8.678,3.885-8.678,8.678C117.153,187.03,121.038,190.915,125.831,190.915z"/>
			<path d="M403.525,216.949H108.475c-4.793,0-8.678,3.885-8.678,8.678c0,4.793,3.885,8.678,8.678,8.678h295.051
				c4.793,0,8.678-3.885,8.678-8.678C412.203,220.834,408.318,216.949,403.525,216.949z"/>
			<path d="M490.305,0H21.695c-4.793,0-8.678,3.885-8.678,8.678v69.424v312.407c0,4.793,3.885,8.678,8.678,8.678H134.82
				C139.27,462.236,191.818,512,256,512s116.73-49.764,121.18-112.814h113.125c4.793,0,8.678-3.885,8.678-8.678V78.102V8.678
				C498.983,3.885,495.098,0,490.305,0z M30.373,17.356h451.254v52.068H30.373V17.356z M256,494.644
				c-57.515,0-104.136-46.62-104.136-104.136c0-54.592,42.004-99.363,95.458-103.773v103.773c0,4.793,3.885,8.678,8.678,8.678
				h103.773C355.363,452.64,310.592,494.644,256,494.644z M359.773,381.831h-95.095v-95.095
				C315.269,290.91,355.599,331.239,359.773,381.831z M377.186,381.831c-0.008-0.115-0.02-0.23-0.029-0.345
				c-0.033-0.455-0.074-0.907-0.113-1.361c-0.047-0.551-0.093-1.102-0.147-1.651c-0.045-0.459-0.097-0.915-0.147-1.372
				c-0.059-0.541-0.119-1.082-0.185-1.621c-0.057-0.458-0.119-0.914-0.18-1.371c-0.072-0.533-0.145-1.066-0.224-1.598
				c-0.068-0.458-0.141-0.914-0.214-1.37c-0.084-0.527-0.17-1.053-0.261-1.577c-0.079-0.457-0.163-0.912-0.247-1.367
				c-0.096-0.519-0.195-1.037-0.298-1.554c-0.091-0.454-0.184-0.908-0.28-1.36c-0.109-0.515-0.22-1.029-0.336-1.542
				c-0.101-0.449-0.204-0.897-0.31-1.344c-0.121-0.511-0.246-1.021-0.373-1.529c-0.112-0.445-0.225-0.89-0.341-1.333
				c-0.133-0.506-0.27-1.01-0.41-1.514c-0.122-0.44-0.245-0.88-0.371-1.318c-0.146-0.504-0.296-1.005-0.448-1.506
				c-0.132-0.434-0.263-0.867-0.399-1.299c-0.158-0.501-0.322-1-0.487-1.499c-0.14-0.425-0.28-0.85-0.424-1.272
				c-0.172-0.502-0.35-1-0.528-1.499c-0.149-0.416-0.296-0.833-0.449-1.248c-0.184-0.499-0.376-0.994-0.566-1.49
				c-0.157-0.409-0.313-0.819-0.474-1.225c-0.199-0.501-0.406-0.998-0.611-1.496c-0.163-0.395-0.323-0.79-0.49-1.183
				c-0.217-0.51-0.442-1.015-0.665-1.521c-0.166-0.376-0.329-0.755-0.499-1.129c-0.239-0.527-0.487-1.049-0.734-1.572
				c-0.164-0.347-0.323-0.697-0.49-1.043c-0.279-0.578-0.569-1.151-0.857-1.725c-0.143-0.285-0.282-0.573-0.427-0.856
				c-0.435-0.849-0.88-1.692-1.334-2.529c-0.003-0.006-0.006-0.011-0.009-0.017c-0.457-0.842-0.925-1.677-1.401-2.507
				c-0.162-0.282-0.331-0.56-0.496-0.841c-0.319-0.546-0.638-1.092-0.965-1.633c-0.197-0.325-0.401-0.646-0.602-0.97
				c-0.303-0.49-0.605-0.98-0.914-1.465c-0.219-0.343-0.445-0.682-0.668-1.023c-0.299-0.458-0.597-0.918-0.903-1.372
				c-0.236-0.351-0.478-0.697-0.717-1.045c-0.301-0.438-0.602-0.877-0.909-1.311c-0.249-0.352-0.503-0.7-0.756-1.049
				c-0.306-0.424-0.612-0.847-0.924-1.267c-0.26-0.349-0.524-0.695-0.787-1.041c-0.314-0.413-0.627-0.825-0.946-1.234
				c-0.271-0.347-0.545-0.69-0.82-1.034c-0.319-0.4-0.639-0.8-0.964-1.197c-0.281-0.343-0.564-0.682-0.849-1.022
				c-0.327-0.391-0.655-0.781-0.987-1.168c-0.289-0.337-0.582-0.672-0.875-1.005c-0.335-0.382-0.672-0.762-1.011-1.14
				c-0.298-0.331-0.598-0.66-0.9-0.988c-0.343-0.373-0.689-0.745-1.036-1.113c-0.305-0.324-0.612-0.646-0.921-0.966
				c-0.353-0.366-0.708-0.729-1.065-1.09c-0.312-0.316-0.625-0.63-0.94-0.942c-0.362-0.358-0.727-0.713-1.093-1.067
				c-0.319-0.308-0.638-0.615-0.96-0.919c-0.37-0.35-0.744-0.696-1.118-1.041c-0.326-0.3-0.651-0.6-0.98-0.897
				c-0.38-0.343-0.764-0.681-1.148-1.019c-0.33-0.29-0.66-0.581-0.994-0.868c-0.392-0.337-0.788-0.669-1.185-1.002
				c-0.333-0.279-0.665-0.559-1.001-0.835c-0.405-0.332-0.814-0.658-1.223-0.985c-0.335-0.268-0.669-0.538-1.008-0.802
				c-0.419-0.328-0.844-0.649-1.268-0.972c-0.334-0.254-0.667-0.511-1.004-0.762c-0.438-0.326-0.882-0.646-1.325-0.967
				c-0.33-0.239-0.657-0.48-0.989-0.716c-0.468-0.332-0.943-0.656-1.416-0.982c-0.312-0.215-0.622-0.434-0.937-0.646
				c-0.534-0.36-1.074-0.71-1.613-1.062c-0.261-0.17-0.518-0.344-0.78-0.512c-1.609-1.03-3.244-2.024-4.904-2.979
				c-0.277-0.16-0.558-0.312-0.837-0.47c-0.556-0.314-1.111-0.629-1.672-0.935c-0.335-0.183-0.675-0.358-1.012-0.537
				c-0.509-0.271-1.018-0.544-1.531-0.808c-0.365-0.188-0.734-0.368-1.101-0.552c-0.492-0.247-0.983-0.495-1.479-0.735
				c-0.383-0.186-0.77-0.365-1.156-0.546c-0.485-0.229-0.969-0.458-1.457-0.68c-0.396-0.18-0.795-0.354-1.193-0.53
				c-0.485-0.214-0.97-0.429-1.458-0.638c-0.404-0.172-0.811-0.339-1.217-0.507c-0.486-0.201-0.973-0.402-1.462-0.597
				c-0.415-0.165-0.832-0.325-1.249-0.486c-0.486-0.188-0.973-0.375-1.463-0.556c-0.422-0.157-0.847-0.309-1.271-0.461
				c-0.491-0.176-0.982-0.35-1.475-0.52c-0.428-0.147-0.857-0.29-1.287-0.432c-0.494-0.164-0.989-0.325-1.485-0.482
				c-0.435-0.138-0.871-0.272-1.308-0.405c-0.497-0.151-0.996-0.3-1.496-0.445c-0.439-0.128-0.88-0.253-1.321-0.375
				c-0.504-0.14-1.009-0.276-1.515-0.41c-0.442-0.117-0.884-0.232-1.328-0.343c-0.51-0.128-1.022-0.252-1.534-0.374
				c-0.445-0.106-0.891-0.211-1.338-0.312c-0.515-0.116-1.032-0.227-1.549-0.337c-0.449-0.095-0.898-0.19-1.349-0.281
				c-0.521-0.104-1.044-0.203-1.568-0.3c-0.451-0.084-0.901-0.169-1.354-0.248c-0.53-0.093-1.062-0.178-1.594-0.264
				c-0.449-0.072-0.898-0.146-1.349-0.214c-0.542-0.081-1.087-0.154-1.631-0.228c-0.445-0.06-0.89-0.123-1.336-0.179
				c-0.553-0.069-1.109-0.129-1.665-0.19c-0.442-0.049-0.884-0.101-1.328-0.145c-0.571-0.057-1.145-0.104-1.718-0.152
				c-0.431-0.037-0.86-0.078-1.292-0.11c-0.607-0.045-1.216-0.079-1.825-0.116c-0.402-0.024-0.802-0.053-1.205-0.073
				c-0.676-0.034-1.356-0.055-2.035-0.077c-0.339-0.011-0.677-0.029-1.017-0.037c-1.02-0.025-2.043-0.039-3.069-0.039
				s-2.049,0.014-3.069,0.039c-0.34,0.008-0.678,0.026-1.017,0.037c-0.679,0.022-1.359,0.044-2.035,0.077
				c-0.403,0.02-0.803,0.049-1.205,0.073c-0.609,0.036-1.218,0.07-1.825,0.116c-0.432,0.032-0.861,0.073-1.292,0.11
				c-0.573,0.049-1.147,0.096-1.718,0.152c-0.444,0.044-0.885,0.096-1.328,0.145c-0.556,0.061-1.112,0.121-1.665,0.19
				c-0.447,0.056-0.891,0.118-1.336,0.179c-0.544,0.074-1.089,0.147-1.631,0.228c-0.451,0.067-0.9,0.141-1.349,0.214
				c-0.532,0.086-1.064,0.171-1.594,0.264c-0.452,0.079-0.903,0.164-1.354,0.248c-0.523,0.098-1.047,0.196-1.568,0.3
				c-0.451,0.09-0.9,0.185-1.349,0.281c-0.517,0.11-1.034,0.221-1.549,0.337c-0.447,0.101-0.892,0.206-1.338,0.312
				c-0.513,0.122-1.024,0.246-1.534,0.374c-0.444,0.112-0.886,0.227-1.328,0.343c-0.506,0.134-1.011,0.27-1.515,0.41
				c-0.441,0.123-0.882,0.248-1.321,0.375c-0.5,0.145-0.999,0.294-1.496,0.445c-0.437,0.133-0.873,0.267-1.308,0.405
				c-0.497,0.157-0.992,0.319-1.485,0.482c-0.43,0.142-0.859,0.285-1.287,0.432c-0.494,0.17-0.985,0.344-1.475,0.52
				c-0.424,0.152-0.849,0.304-1.271,0.461c-0.489,0.182-0.976,0.368-1.463,0.556c-0.417,0.161-0.834,0.321-1.249,0.486
				c-0.49,0.195-0.976,0.396-1.462,0.597c-0.406,0.168-0.813,0.335-1.217,0.507c-0.488,0.208-0.973,0.423-1.458,0.638
				c-0.398,0.176-0.797,0.35-1.193,0.53c-0.488,0.222-0.973,0.452-1.457,0.68c-0.385,0.182-0.772,0.361-1.156,0.546
				c-0.496,0.24-0.987,0.488-1.479,0.735c-0.367,0.184-0.736,0.365-1.101,0.552c-0.514,0.264-1.022,0.537-1.531,0.808
				c-0.337,0.18-0.677,0.355-1.012,0.537c-0.561,0.306-1.116,0.62-1.672,0.935c-0.278,0.157-0.56,0.31-0.837,0.47
				c-1.66,0.956-3.295,1.949-4.904,2.979c-0.262,0.168-0.519,0.342-0.78,0.512c-0.54,0.351-1.08,0.702-1.613,1.062
				c-0.315,0.212-0.624,0.431-0.937,0.646c-0.473,0.326-0.948,0.65-1.416,0.982c-0.332,0.235-0.659,0.477-0.989,0.716
				c-0.443,0.321-0.887,0.64-1.325,0.967c-0.337,0.251-0.669,0.508-1.004,0.762c-0.424,0.322-0.848,0.644-1.268,0.972
				c-0.338,0.265-0.672,0.534-1.008,0.802c-0.409,0.327-0.818,0.653-1.223,0.985c-0.336,0.276-0.668,0.556-1.001,0.835
				c-0.396,0.332-0.793,0.665-1.185,1.002c-0.334,0.287-0.663,0.578-0.994,0.868c-0.384,0.338-0.768,0.676-1.148,1.019
				c-0.329,0.297-0.655,0.597-0.98,0.897c-0.375,0.345-0.748,0.691-1.118,1.041c-0.322,0.304-0.641,0.612-0.96,0.919
				c-0.366,0.354-0.731,0.709-1.093,1.067c-0.315,0.312-0.628,0.627-0.94,0.942c-0.357,0.361-0.712,0.724-1.065,1.09
				c-0.309,0.32-0.616,0.642-0.921,0.966c-0.348,0.369-0.693,0.74-1.036,1.113c-0.301,0.328-0.602,0.657-0.9,0.988
				c-0.34,0.378-0.676,0.758-1.011,1.14c-0.293,0.334-0.585,0.668-0.875,1.005c-0.332,0.387-0.66,0.777-0.987,1.168
				c-0.284,0.34-0.568,0.679-0.849,1.022c-0.324,0.396-0.644,0.796-0.964,1.197c-0.274,0.344-0.549,0.687-0.82,1.034
				c-0.319,0.409-0.632,0.821-0.946,1.234c-0.263,0.346-0.527,0.692-0.787,1.041c-0.312,0.419-0.618,0.843-0.924,1.267
				c-0.253,0.349-0.507,0.697-0.756,1.049c-0.307,0.434-0.607,0.873-0.909,1.311c-0.239,0.348-0.481,0.694-0.717,1.045
				c-0.305,0.454-0.604,0.913-0.903,1.372c-0.223,0.341-0.449,0.68-0.668,1.023c-0.31,0.485-0.611,0.975-0.914,1.465
				c-0.2,0.323-0.404,0.644-0.602,0.97c-0.328,0.54-0.646,1.087-0.965,1.633c-0.164,0.281-0.333,0.559-0.496,0.841
				c-0.477,0.83-0.944,1.665-1.401,2.507c-0.003,0.006-0.006,0.011-0.009,0.017c-0.454,0.837-0.899,1.68-1.334,2.529
				c-0.145,0.284-0.284,0.571-0.427,0.856c-0.288,0.573-0.577,1.146-0.857,1.725c-0.167,0.346-0.327,0.696-0.49,1.043
				c-0.246,0.523-0.495,1.045-0.734,1.572c-0.17,0.374-0.333,0.753-0.499,1.129c-0.224,0.506-0.448,1.011-0.665,1.521
				c-0.167,0.392-0.327,0.788-0.49,1.183c-0.206,0.498-0.412,0.995-0.611,1.496c-0.162,0.407-0.317,0.817-0.474,1.225
				c-0.191,0.496-0.382,0.991-0.566,1.49c-0.153,0.414-0.301,0.831-0.449,1.248c-0.178,0.499-0.356,0.997-0.528,1.499
				c-0.145,0.423-0.284,0.847-0.424,1.272c-0.165,0.499-0.328,0.997-0.487,1.499c-0.136,0.432-0.268,0.865-0.399,1.299
				c-0.152,0.501-0.302,1.002-0.448,1.506c-0.127,0.438-0.249,0.878-0.371,1.318c-0.139,0.503-0.277,1.008-0.41,1.514
				c-0.117,0.443-0.23,0.888-0.341,1.333c-0.128,0.509-0.252,1.018-0.373,1.529c-0.106,0.447-0.209,0.895-0.31,1.344
				c-0.115,0.513-0.227,1.027-0.336,1.542c-0.096,0.453-0.189,0.906-0.28,1.36c-0.103,0.517-0.201,1.035-0.298,1.554
				c-0.084,0.455-0.168,0.91-0.247,1.367c-0.091,0.524-0.177,1.05-0.261,1.577c-0.073,0.456-0.146,0.912-0.214,1.37
				c-0.079,0.531-0.152,1.064-0.224,1.598c-0.062,0.457-0.124,0.913-0.18,1.371c-0.066,0.539-0.126,1.08-0.185,1.621
				c-0.05,0.457-0.102,0.914-0.147,1.372c-0.054,0.549-0.1,1.1-0.147,1.651c-0.038,0.453-0.079,0.906-0.113,1.361
				c-0.008,0.115-0.02,0.23-0.029,0.345H30.373V86.78h451.254v295.051H377.186z"/>
		</g>
	</g>
</g>
<g>
</g>
<g>
</g>
<g>
</g>
<g>
</g>
<g>
</g>
<g>
</g>
<g>
</g>
<g>
</g>
<g>
</g>
<g>
</g>
<g>
</g>
<g>
</g>
<g>
</g>
<g>
</g>
<g>
</g>
</svg>
